<?xml version="1.0" encoding="utf-8"?>
<!-- Generator: Adobe Illustrator 22.0.1, SVG Export Plug-In . SVG Version: 6.00 Build 0)  -->
<svg version="1.1" id="Слой_1" xmlns="http://www.w3.org/2000/svg" xmlns:xlink="http://www.w3.org/1999/xlink" x="0px" y="0px"
	 viewBox="0 0 360.5 56" style="enable-background:new 0 0 360.5 56;" xml:space="preserve">
<g>
	<g>
		<path d="M49.9,8.3c-13.7,3.1-27.2,7-40.5,11.6c-2.6,0.9-2.3,4.9,0.7,4.9c21.1-0.1,42.1-0.3,63.2-0.4c-0.4-1.6-0.8-3.1-1.3-4.7
			c-8.4,4.7-16.7,9.5-25.1,14.2c-2.2,1.2-1.2,4.7,1.3,4.7c77.8-0.2,155.5-0.9,233.2,4.6c21.9,1.6,43.8,3.6,65.6,5.9
			c3.2,0.3,3.2-4.7,0-5c-77.3-8.3-154.6-10.8-232.3-10.7c-22.2,0-44.4,0.1-66.5,0.1c0.4,1.6,0.8,3.1,1.3,4.7
			c8.4-4.7,16.7-9.5,25.1-14.2c2.2-1.2,1.2-4.7-1.3-4.7c-21.1,0.1-42.1,0.3-63.2,0.4c0.2,1.6,0.4,3.3,0.7,4.9
			c13.3-4.6,26.8-8.5,40.5-11.6C54.4,12.5,53,7.6,49.9,8.3L49.9,8.3z"/>
	</g>
</g>
</svg>
