<?xml version="1.0" encoding="utf-8"?>
<!-- Generator: Adobe Illustrator 22.0.1, SVG Export Plug-In . SVG Version: 6.00 Build 0)  -->
<svg version="1.1" xmlns="http://www.w3.org/2000/svg" xmlns:xlink="http://www.w3.org/1999/xlink" x="0px" y="0px"
	 viewBox="0 0 578.3 420.9" style="enable-background:new 0 0 578.3 420.9;" xml:space="preserve">
<style type="text/css">
	.st0{display:none;}
	.st1{fill:none;stroke:#000000;stroke-width:5;stroke-miterlimit:10;}
	.st2{fill:none;stroke:#F39200;stroke-width:5;stroke-miterlimit:10;}
</style>
<g id="Слой_2" class="st0">
</g>
<g id="Слой_1" class="st0">
</g>
<g id="Слой_3">
	<g>
		
			<rect x="250.3" y="27.7" transform="matrix(0.9102 0.4142 -0.4142 0.9102 99.4452 -92.0991)" class="st1" width="23.6" height="311.2"/>
		<path class="st2" d="M336.1,13.7l5,2.3c4.6,2.1,6.2,8.4,3.6,14.1l-7.4,16.4l-21.5-9.9l7.4-16.4C325.7,14.5,331.5,11.6,336.1,13.7z
			"/>
		<path class="st1" d="M186.6,320.7l-3,31.1c-0.1,2.3,1.5,3,3,1.6l21.5-22.7"/>
		<g>
			<g>
				<path d="M183.9,362.7c-13.7,3.1-27.2,7-40.5,11.6c-2.6,0.9-2.3,4.9,0.7,4.9c21.1-0.1,42.1-0.3,63.2-0.4
					c-0.4-1.6-0.8-3.1-1.3-4.7c-8.4,4.7-16.7,9.5-25.1,14.2c-2.2,1.2-1.2,4.7,1.3,4.7c77.8-0.2,155.5-0.9,233.2,4.6
					c21.9,1.6,43.8,3.6,65.6,5.9c3.2,0.3,3.2-4.7,0-5c-77.3-8.3-154.6-10.8-232.3-10.7c-22.2,0-44.4,0.1-66.5,0.1
					c0.4,1.6,0.8,3.1,1.3,4.7c8.4-4.7,16.7-9.5,25.1-14.2c2.2-1.2,1.2-4.7-1.3-4.7c-21.1,0.1-42.1,0.3-63.2,0.4
					c0.2,1.6,0.4,3.3,0.7,4.9c13.3-4.6,26.8-8.5,40.5-11.6C188.4,366.8,187,361.9,183.9,362.7L183.9,362.7z"/>
			</g>
		</g>
	</g>
	<g>
		<path d="M20.8,44.5v260.1h-7.9V44.5H20.8z M62.4,174.3l94.3,130.2h-10.1L52.3,174.3l94.3-129.9h10.1L62.4,174.3z"/>
	</g>
	<g>
		<path d="M374.7,52.4v-7.9h187.2v7.9H384.4l86.1,118.2h0.3v0.3h-0.3l-91.4,125.8h177.5v7.9H369.3v-7.9L461,170.9L374.7,52.4z"/>
	</g>
</g>
</svg>
