<?xml version="1.0" encoding="UTF-8"?>
<svg width="16px" height="13px" viewBox="0 0 16 13" version="1.1" xmlns="http://www.w3.org/2000/svg" xmlns:xlink="http://www.w3.org/1999/xlink">
    <!-- Generator: sketchtool 47.1 (45422) - http://www.bohemiancoding.com/sketch -->
    <title>250E131E-AE6B-448D-8DD9-E83A0A5CB981</title>
    <desc>Created with sketchtool.</desc>
    <defs></defs>
    <g id="Product-Module-Page" stroke="none" stroke-width="1" fill="none" fill-rule="evenodd">
        <g transform="translate(-1538.000000, -4475.000000)" id="Footer" fill="#000000">
            <g transform="translate(51.000000, 4452.000000)">
                <g id="Group-15" transform="translate(1411.000000, 21.000000)">
                    <g id="Group-14">
                        <path d="M81.279064,14.4376806 C86.993677,14.4376806 90.1194121,9.70007023 90.1194121,5.59207028 C90.1194121,5.45720787 90.1194121,5.32310312 90.1103257,5.18975601 C90.7183599,4.7503167 91.2431017,4.20480582 91.6603207,3.58049893 C91.0939327,3.83204006 90.4919561,3.99720863 89.8763499,4.06994341 C90.5245158,3.68126691 91.0098831,3.0705978 91.2423445,2.35006885 C90.6320387,2.71222746 89.9649426,2.96755685 89.2690728,3.10469222 C88.092379,1.85304783 86.1244077,1.79243551 84.8727507,2.96982981 C84.0663292,3.72899911 83.7233161,4.86093418 83.9739504,5.94059112 C81.4759368,5.81482056 79.148294,4.63439564 77.5702824,2.69252845 C76.7456881,4.11312969 77.1674503,5.92998396 78.5326878,6.84219937 C78.038234,6.82780394 77.5543811,6.69445684 77.1220181,6.45352287 L77.1220181,6.49292088 C77.1227753,7.97261913 78.1654442,9.24699314 79.6147312,9.54020524 C79.1573805,9.66521815 78.6773136,9.68340184 78.2123908,9.59324102 C78.6190089,10.8600385 79.7858592,11.7275523 81.1147509,11.7525549 C80.0145345,12.6177958 78.6553547,13.0875412 77.2560431,13.0860259 C77.0091948,13.0852683 76.7623465,13.0708728 76.5162555,13.0413243 C77.937526,13.9535397 79.5905007,14.4376806 81.279064,14.4354077" id="twitter-[#154]" transform="translate(84.088288, 8.281289) rotate(-360.000000) translate(-84.088288, -8.281289) "></path>
                    </g>
                </g>
            </g>
        </g>
    </g>
</svg>