<?xml version="1.0" encoding="UTF-8"?>
<svg width="16px" height="16px" viewBox="0 0 16 16" version="1.1" xmlns="http://www.w3.org/2000/svg" xmlns:xlink="http://www.w3.org/1999/xlink">
    <!-- Generator: sketchtool 47.1 (45422) - http://www.bohemiancoding.com/sketch -->
    <title>F06FDC55-EFB4-481E-91D2-F784566393DC</title>
    <desc>Created with sketchtool.</desc>
    <defs></defs>
    <g id="Product-Module-Page" stroke="none" stroke-width="1" fill="none" fill-rule="evenodd">
        <g transform="translate(-1613.000000, -4473.000000)" id="Footer" fill="#000000">
            <g transform="translate(51.000000, 4452.000000)">
                <g id="Group-15" transform="translate(1411.000000, 21.000000)">
                    <g id="Group-14">
                        <path d="M155.516984,0.0944443486 C154.264249,0.150968101 153.178443,0.457265731 152.301681,1.33032855 C151.421857,2.20797438 151.119393,3.2979662 151.062729,4.53766957 C151.027506,5.31143391 150.821524,11.1570593 151.418794,12.6900751 C151.821568,13.724307 152.614865,14.5194587 153.658556,14.9235271 C154.145561,15.1129581 154.701481,15.2412823 155.516984,15.2787102 C162.335816,15.5872993 164.863493,15.4192557 165.92939,12.6900751 C166.118526,12.2042763 166.2487,11.6489687 166.284689,10.8354849 C166.596341,3.99916626 166.234151,2.51732735 165.045737,1.33032855 C164.103122,0.390048296 162.994344,-0.250045006 155.516984,0.0944443486 M155.579774,13.9038081 C154.833187,13.8701994 154.428115,13.7456943 154.157812,13.641049 C153.477844,13.3767623 152.967101,12.8680485 152.704456,12.192055 C152.249612,11.0272074 152.400461,5.49475419 152.441044,4.59954016 C152.480862,3.72265817 152.658512,2.92139579 153.277222,2.30268986 C154.042953,1.53885537 155.032277,1.16457647 161.76841,1.46858259 C162.647468,1.50830199 163.45072,1.68551159 164.070962,2.30268986 C164.836692,3.06652435 165.216495,4.06332835 164.90714,10.7736143 C164.873447,11.518353 164.748633,11.9224214 164.643728,12.192055 C163.950742,13.9679702 162.356491,14.2146887 155.579774,13.9038081 M161.842685,3.60884683 C161.842685,4.11450526 162.253883,4.52544822 162.761562,4.52544822 C163.269242,4.52544822 163.681205,4.11450526 163.681205,3.60884683 C163.681205,3.1031884 163.269242,2.69224545 162.761562,2.69224545 C162.253883,2.69224545 161.842685,3.1031884 161.842685,3.60884683 M154.742065,7.68619533 C154.742065,9.85242995 156.50248,11.6084854 158.674092,11.6084854 C160.845704,11.6084854 162.606119,9.85242995 162.606119,7.68619533 C162.606119,5.51996072 160.845704,3.76466907 158.674092,3.76466907 C156.50248,3.76466907 154.742065,5.51996072 154.742065,7.68619533 M156.121912,7.68619533 C156.121912,6.28073988 157.264382,5.14033498 158.674092,5.14033498 C160.083802,5.14033498 161.226272,6.28073988 161.226272,7.68619533 C161.226272,9.09241463 160.083802,10.2328195 158.674092,10.2328195 C157.264382,10.2328195 156.121912,9.09241463 156.121912,7.68619533" id="instagram-[#167]"></path>
                    </g>
                </g>
            </g>
        </g>
    </g>
</svg>